<svg width="398" height="356" viewBox="0 0 398 356" fill="none" xmlns="http://www.w3.org/2000/svg">
<path fill-rule="evenodd" clip-rule="evenodd" d="M239.162 213.372C299.652 213.372 310.005 231.972 310.005 270.737V275.904C310.005 313.624 311.096 340.491 317.65 355.992H395.02C389.567 339.459 389.567 312.073 389.567 288.31V270.741C389.567 206.674 361.232 188.59 342.702 181.871C369.951 171.021 397.196 145.187 397.196 97.6522C397.196 42.3509 353.06 0 271.316 0C264.204 0 257.757 0 251.691 0C251.691 0 212.731 23.783 186.982 39.0179C186.982 107.107 186.982 213.37 186.982 213.37L239.162 213.364V213.372ZM186.982 39.0179C212.731 47.5827 251.691 60.9429 251.691 60.9429H255.511C295.294 60.9429 315.465 77.4755 315.465 106.41C315.465 135.86 298.026 151.876 253.902 151.876L186.982 151.883C186.982 151.883 186.982 83.0944 186.982 39.0179Z" fill="#2D363C"/>
<path fill-rule="evenodd" clip-rule="evenodd" d="M103 213.36L187 213.36V355.996C164.736 355.996 143.33 347.14 127.587 331.389C111.844 315.638 103 294.275 103 272V213.36Z" fill="#7CB342"/>
<path fill-rule="evenodd" clip-rule="evenodd" d="M103 213.36L187 213.363V151.879H103V213.36Z" fill="#F2B73F"/>
<path fill-rule="evenodd" clip-rule="evenodd" d="M103 151.88L187 151.875V60.94L103 60.94V151.88Z" fill="#EF8A3E"/>
<path fill-rule="evenodd" clip-rule="evenodd" d="M59.7317 0H251.697V60.945L0 60.94C0 44.663 5.90965 29.092 17.5007 17.4982C28.7021 6.29412 43.8927 -5.84774e-07 59.7317 0Z" fill="#D84A3D"/>
</svg>
