<svg width="2872" height="369" viewBox="0 0 2872 369" fill="none" xmlns="http://www.w3.org/2000/svg">
<path fill-rule="evenodd" clip-rule="evenodd" d="M351 5.19722V363.569H434.177V5.19722H351ZM813.206 145.119H628.992V68.6773H821.025V5.19722H548.041V363.569H822.15L832.2 300.114H628.992V209.098H813.21V145.119H813.206ZM1049.87 220.02C1111.83 220.02 1122.44 238.744 1122.44 277.767V282.968C1122.44 320.939 1123.56 347.985 1130.27 363.589H1209.53C1203.94 346.947 1203.94 319.378 1203.94 295.456V277.771C1203.94 213.278 1174.91 195.072 1155.93 188.309C1183.85 177.387 1211.76 151.38 1211.76 103.529C1211.76 47.8597 1166.54 5.2263 1082.81 5.2263H913.658V363.598H995.161V220.012H1049.87V220.02ZM995.161 66.5751H1066.61C1107.37 66.5751 1128.03 83.2181 1128.03 112.345C1128.03 141.991 1110.17 158.114 1064.97 158.114H995.161V66.5751ZM1308.29 363.569H1574.01L1583.49 300.114H1391.48V5.19722H1308.29V363.569ZM1654.94 5.19722V363.569H1738.12V5.19722H1654.94ZM1821.84 258.502C1830.77 324.038 1882.69 368.77 1980.38 368.77C2081.98 368.77 2135.01 323.519 2135.01 258.502C2135.01 207.532 2110.45 169.04 1998.8 144.072C1936.28 131.069 1920.09 120.666 1920.09 95.702C1920.09 70.2146 1940.19 57.211 1974.24 57.211C2023.92 57.211 2036.76 81.1367 2041.23 103.504H2124.96C2119.38 50.9714 2078.63 0 1976.47 0C1885.48 0 1835.24 42.1307 1835.24 104.547C1835.24 152.917 1860.92 188.808 1965.87 211.694C2031.74 225.736 2050.16 238.221 2050.16 267.871C2050.16 293.873 2031.2 310.521 1986.52 310.521C1941.84 310.521 1914.51 294.397 1905.57 258.507H1821.84L1821.84 258.502ZM2299.66 363.569H2382.84V68.6565H2499.49V5.19722H2182.43V68.6565H2299.66L2299.66 363.569ZM2709.38 220.012C2771.35 220.012 2781.95 238.736 2781.95 277.758V282.96C2781.95 320.931 2783.07 347.977 2789.78 363.581H2869.05C2863.47 346.938 2863.47 319.369 2863.47 295.448V277.763C2863.47 213.27 2834.44 195.064 2815.46 188.301C2843.37 177.379 2871.29 151.371 2871.29 103.521C2871.29 47.8514 2826.07 5.218 2742.33 5.218H2573.16V363.589H2654.67V220.012H2709.38ZM2654.67 66.5751H2726.13C2766.87 66.5751 2787.54 83.2181 2787.54 112.345C2787.54 141.991 2769.68 158.114 2724.48 158.114H2654.67V66.5751Z" fill="#2D363C"/>
<path fill-rule="evenodd" clip-rule="evenodd" d="M103.406 215.332L187.737 215.332V358.931C165.386 358.931 143.896 350.015 128.09 334.158C112.285 318.3 103.406 296.793 103.406 274.367V215.332Z" fill="#7CB342"/>
<path fill-rule="evenodd" clip-rule="evenodd" d="M103.406 215.331L187.737 215.335V153.435H103.406V215.331Z" fill="#F2B73F"/>
<path fill-rule="evenodd" clip-rule="evenodd" d="M103.406 153.436L187.737 153.431V61.8823L103.406 61.8823V153.436Z" fill="#EF8A3E"/>
<path fill-rule="evenodd" clip-rule="evenodd" d="M59.9672 0.531006H252.689V61.8875L7.43568e-06 61.8825C7.43568e-06 45.4956 5.93296 29.8194 17.5697 18.1473C28.8153 6.86762 44.0657 0.531005 59.9672 0.531006Z" fill="#D84A3D"/>
</svg>
