<svg width="558" height="558" viewBox="0 0 558 558" fill="none" xmlns="http://www.w3.org/2000/svg">
  <rect width="558" height="558" rx="66" fill="#2D363C"/>
  <path fill-rule="evenodd" clip-rule="evenodd" d="M302.162 314.372C362.652 314.372 373.005 332.972 373.005 371.737V376.904C373.005 414.624 374.096 441.491 380.65 456.992H458.02C452.567 440.459 452.567 413.073 452.567 389.31V371.741C452.567 307.674 424.232 289.59 405.702 282.871C432.951 272.021 460.196 246.187 460.196 198.652C460.196 143.351 416.06 101 334.316 101C327.204 101 320.757 101 314.691 101C314.691 101 275.731 124.783 249.982 140.018C249.982 208.107 249.982 314.37 249.982 314.37L302.162 314.364V314.372ZM249.982 140.018C275.731 148.583 314.691 161.943 314.691 161.943H318.511C358.294 161.943 378.465 178.475 378.465 207.41C378.465 236.86 361.026 252.876 316.902 252.876L249.982 252.883C249.982 252.883 249.982 184.094 249.982 140.018Z" fill="white"/>
  <path fill-rule="evenodd" clip-rule="evenodd" d="M166 314.36L250 314.36V456.997C227.736 456.997 206.33 448.141 190.587 432.389C174.844 416.638 166 395.275 166 373V314.36Z" fill="#7CB342"/>
  <path fill-rule="evenodd" clip-rule="evenodd" d="M166 314.36L250 314.363V252.879H166V314.36Z" fill="#F2B73F"/>
  <path fill-rule="evenodd" clip-rule="evenodd" d="M166 252.88L250 252.875V161.94L166 161.94V252.88Z" fill="#EF8A3E"/>
  <path fill-rule="evenodd" clip-rule="evenodd" d="M122.732 101H314.697V161.945L63 161.94C63 145.663 68.9097 130.092 80.5007 118.498C91.7021 107.294 106.893 101 122.732 101Z" fill="#D84A3D"/>
</svg>
